<svg xmlns="http://www.w3.org/2000/svg" viewBox="0 0 188.8 40.6"><path d="M14.6 0H0v14.6c0 2.7 2.2 4.9 4.9 4.9h14.6V4.9c0-2.7-2.2-4.9-4.9-4.9m2.3 16.9h-12c-1.3 0-2.3-1-2.3-2.3v-12h12.1c1.3 0 2.3 1 2.3 2.3v12h-.1zM26.3 40.6h14.6V26c0-2.7-2.2-4.9-4.9-4.9H21.4v14.6c0 2.7 2.2 4.9 4.9 4.9M24 23.7h12c1.3 0 2.3 1 2.3 2.3v12h-12C25 38 24 37 24 35.7v-12zM27.6 19.5c.7 0 1.2-.5 1.2-1.2v-6.2h-6.2c-.7 0-1.2.5-1.2 1.2v6.2h6.2z"/><path d="M26.3 0c-2.7 0-4.9 2.2-4.9 4.9v7.4c0-.8.6-1.4 1.4-1.4H24v-6c0-1.3 1-2.3 2.3-2.3h12.1v12.1c0 1.3-1 2.3-2.3 2.3h-6v1.2c0 .8-.6 1.4-1.4 1.4H36c2.7 0 4.9-2.2 4.9-4.9V0H26.3zM13.3 21.1c-.7 0-1.2.5-1.2 1.2v6.2h6.2c.7 0 1.2-.5 1.2-1.2v-6.2h-6.2z"/><path d="M14.6 40.6c2.7 0 4.9-2.2 4.9-4.9v-7.4c0 .8-.6 1.4-1.4 1.4h-1.2v6c0 1.3-1 2.3-2.3 2.3h-12V26c0-1.3 1-2.3 2.3-2.3h6v-1.2c0-.8.6-1.4 1.4-1.4H4.9C2.2 21.1 0 23.3 0 26v14.6h14.6z"/><g><path d="M65.2 2c0 1.1-.8 2-2.1 2-1.1 0-2-.9-2-2s.9-2 2-2c1.3 0 2.1.9 2.1 2zm-3.6 23V7.1h3.3V25h-3.3zM68.4 11.9c0-1.8 0-3.4-.1-4.8h2.9l.2 3h.1c.9-1.7 3-3.4 5.9-3.4 2.5 0 6.3 1.5 6.3 7.6V25h-3.3V14.6c0-2.9-1.1-5.3-4.1-5.3-2.1 0-3.8 1.5-4.4 3.3-.1.4-.2 1-.2 1.5V25h-3.3V11.9z"/></g><g><path d="M90.9 3.3v4.8h4.4v2.3h-4.4v9.1c0 2.1.6 3.3 2.3 3.3.8 0 1.4-.1 1.8-.2l.1 2.3c-.6.2-1.5.4-2.7.4-1.4 0-2.6-.5-3.3-1.3-.9-.9-1.2-2.4-1.2-4.4v-9.2h-2.6V8.1h2.6v-4l3-.8zM98.7 17.1c.1 4.1 2.7 5.9 5.8 5.9 2.2 0 3.5-.4 4.7-.9l.5 2.2c-1.1.5-2.9 1-5.6 1-5.2 0-8.3-3.4-8.3-8.5s3-9.1 7.9-9.1c5.5 0 7 4.8 7 7.9 0 .6-.1 1.1-.1 1.4H98.7v.1zm9-2.2c0-2-.8-5-4.3-5-3.1 0-4.5 2.9-4.7 5h9zM124.8 24.3c-.8.4-2.6 1-4.8 1-5.1 0-8.4-3.5-8.4-8.6 0-5.2 3.6-9 9.1-9 1.8 0 3.4.5 4.3.9l-.7 2.4c-.7-.4-1.9-.8-3.6-.8-3.9 0-6 2.9-6 6.4 0 3.9 2.5 6.3 5.9 6.3 1.7 0 2.9-.5 3.8-.8l.4 2.2zM126.6 12.7c0-1.7 0-3.2-.1-4.6h2.7l.2 2.8h.1c.8-1.6 2.8-3.2 5.6-3.2 2.3 0 6 1.4 6 7.2V25H138v-9.7c0-2.7-1-5-3.9-5-2 0-3.6 1.4-4.1 3.1-.1.4-.2.9-.2 1.4V25h-3.1V12.7h-.1zM159.5 16.4c0 6.2-4.3 9-8.4 9-4.6 0-8.1-3.3-8.1-8.7 0-5.6 3.7-9 8.4-9 4.8 0 8.1 3.5 8.1 8.7zm-13.4.2c0 3.7 2.1 6.5 5.1 6.5 2.9 0 5.1-2.8 5.1-6.6 0-2.9-1.4-6.5-5.1-6.5-3.5 0-5.1 3.4-5.1 6.6zM162.8 8.1l3.3 9.5c.6 1.5 1 2.9 1.4 4.3h.1c.4-1.4.9-2.8 1.4-4.3l3.3-9.5h3.2L168.9 25H166l-6.4-16.9h3.2zM186 25l-.2-2.1h-.1c-.9 1.3-2.8 2.5-5.2 2.5-3.4 0-5.2-2.4-5.2-4.8 0-4.1 3.6-6.3 10.1-6.3V14c0-1.4-.4-3.9-3.8-3.9-1.6 0-3.2.5-4.4 1.3l-.7-2c1.4-.9 3.4-1.5 5.5-1.5 5.2 0 6.4 3.5 6.4 6.9v6.3c0 1.5.1 2.9.3 4L186 25zm-.4-8.6c-3.3-.1-7.1.5-7.1 3.8 0 2 1.3 2.9 2.9 2.9 2.2 0 3.6-1.4 4.1-2.8.1-.3.2-.7.2-1l-.1-2.9z"/></g><g><path d="M69.8 39.7c-.5.3-1.6.5-3 .5-3.2 0-5.6-2-5.6-5.7 0-3.5 2.4-5.9 5.9-5.9 1.4 0 2.3.3 2.7.5l-.4 1.2c-.6-.3-1.3-.5-2.3-.5-2.7 0-4.4 1.7-4.4 4.7 0 2.8 1.6 4.6 4.4 4.6.9 0 1.8-.2 2.4-.5l.3 1.1zM78.7 35.9c0 3-2.1 4.3-4 4.3-2.2 0-3.9-1.6-3.9-4.2 0-2.7 1.8-4.3 4-4.3 2.3.1 3.9 1.7 3.9 4.2zm-6.4.1c0 1.8 1 3.1 2.5 3.1 1.4 0 2.5-1.3 2.5-3.2 0-1.4-.7-3.1-2.4-3.1-1.9.1-2.6 1.7-2.6 3.2zM80.6 34.1c0-.8 0-1.5-.1-2.2h1.3l.1 1.3c.4-.8 1.3-1.5 2.7-1.5 1.1 0 2.9.7 2.9 3.5v4.9H86v-4.7c0-1.3-.5-2.4-1.9-2.4-1 0-1.7.7-2 1.5-.1.2-.1.4-.1.7v4.9h-1.5l.1-6zM89.7 38.6c.4.3 1.2.6 1.9.6 1.1 0 1.6-.5 1.6-1.2s-.4-1.1-1.5-1.5c-1.5-.5-2.2-1.3-2.2-2.3 0-1.3 1.1-2.4 2.8-2.4.8 0 1.5.2 2 .5l-.3 1c-.3-.2-.9-.5-1.7-.5-.9 0-1.4.5-1.4 1.1 0 .7.5 1 1.5 1.4 1.4.5 2.1 1.2 2.1 2.5 0 1.4-1.1 2.4-3 2.4-.9 0-1.7-.2-2.3-.6l.5-1zM98.3 29.6v2.3h2.1V33h-2.1v4.4c0 1 .3 1.6 1.1 1.6.4 0 .7-.1.9-.1l.1 1.1c-.3.1-.7.2-1.3.2-.7 0-1.2-.2-1.6-.6-.4-.4-.6-1.2-.6-2.1v-4.4h-1.3V32h1.3v-2l1.4-.4zM102.1 34.5c0-1 0-1.8-.1-2.5h1.3v1.6h.1c.4-1.1 1.3-1.8 2.3-1.8.2 0 .3 0 .4.1v1.4c-.2 0-.3-.1-.5-.1-1 0-1.8.8-2 1.9 0 .2-.1.4-.1.7v4.3H102l.1-5.6zM114.4 37.8c0 .8 0 1.6.1 2.2h-1.3l-.1-1.3c-.4.7-1.2 1.5-2.7 1.5-1.3 0-2.8-.7-2.8-3.6v-4.8h1.5v4.5c0 1.5.5 2.6 1.8 2.6 1 0 1.7-.7 1.9-1.3.1-.2.1-.5.1-.8v-5h1.5v6zM122.7 39.8c-.4.2-1.2.5-2.3.5-2.5 0-4-1.7-4-4.1 0-2.5 1.7-4.3 4.4-4.3.9 0 1.6.2 2 .4l-.3 1.1c-.4-.2-.9-.4-1.7-.4-1.9 0-2.9 1.4-2.9 3.1 0 1.9 1.2 3 2.8 3 .8 0 1.4-.2 1.8-.4l.2 1.1zM126.4 29.6v2.3h2.1V33h-2.1v4.4c0 1 .3 1.6 1.1 1.6.4 0 .7-.1.9-.1l.1 1.1c-.3.1-.7.2-1.3.2-.7 0-1.2-.2-1.6-.6-.4-.4-.6-1.2-.6-2.1v-4.4h-1.3V32h1.3v-2l1.4-.4zM137.4 35.9c0 3-2.1 4.3-4 4.3-2.2 0-3.9-1.6-3.9-4.2 0-2.7 1.8-4.3 4-4.3 2.3.1 3.9 1.7 3.9 4.2zm-6.4.1c0 1.8 1 3.1 2.5 3.1 1.4 0 2.5-1.3 2.5-3.2 0-1.4-.7-3.1-2.4-3.1-1.9.1-2.6 1.7-2.6 3.2zM139.3 34.5c0-1 0-1.8-.1-2.5h1.3v1.6h.1c.4-1.1 1.3-1.8 2.3-1.8.2 0 .3 0 .4.1v1.4c-.2 0-.3-.1-.5-.1-1 0-1.8.8-2 1.9 0 .2-.1.4-.1.7v4.3h-1.5v-5.6h.1zM149.2 40.1l-.1-1h-.1c-.5.6-1.3 1.2-2.5 1.2-1.6 0-2.5-1.2-2.5-2.3 0-2 1.7-3 4.9-3v-.2c0-.7-.2-1.9-1.8-1.9-.8 0-1.5.2-2.1.6l-.3-1c.7-.4 1.6-.7 2.7-.7 2.5 0 3.1 1.7 3.1 3.3v3c0 .7 0 1.4.1 1.9h-1.4v.1zm-.2-4.2c-1.6 0-3.4.3-3.4 1.8 0 1 .6 1.4 1.4 1.4 1.1 0 1.7-.7 2-1.4 0-.2.1-.3.1-.5v-1.3h-.1z"/></g><path d="M50.8 0h1.5v40.2h-1.5z"/></svg>