<?xml version="1.0" encoding="utf-8"?>
<!-- Generator: Adobe Illustrator 24.0.2, SVG Export Plug-In . SVG Version: 6.00 Build 0)  -->
<svg version="1.1" id="Capa_1" xmlns="http://www.w3.org/2000/svg" xmlns:xlink="http://www.w3.org/1999/xlink" x="0px" y="0px"
	 viewBox="0 0 188.8 40.6" style="enable-background:new 0 0 188.8 40.6;" xml:space="preserve">
<g>
	<g>
		<path d="M14.6,0L14.6,0H0v14.6c0,2.7,2.2,4.9,4.9,4.9h14.6V4.9C19.5,2.2,17.3,0,14.6,0 M16.9,16.9h-12c-1.3,0-2.3-1-2.3-2.3v-12
			h12.1c1.3,0,2.3,1,2.3,2.3v12H16.9z"/>
		<path d="M26.3,40.6L26.3,40.6h14.6V26c0-2.7-2.2-4.9-4.9-4.9H21.4v14.6C21.4,38.4,23.6,40.6,26.3,40.6 M24,23.7h12
			c1.3,0,2.3,1,2.3,2.3v12h-12C25,38,24,37,24,35.7V23.7z"/>
		<path d="M27.6,19.5c0.7,0,1.2-0.5,1.2-1.2v-6.2h-6.2c-0.7,0-1.2,0.5-1.2,1.2v6.2H27.6z"/>
		<path d="M26.3,0L26.3,0c-2.7,0-4.9,2.2-4.9,4.9v7.4c0-0.8,0.6-1.4,1.4-1.4H24v-6c0-1.3,1-2.3,2.3-2.3h12.1v12.1
			c0,1.3-1,2.3-2.3,2.3h-6v1.2c0,0.8-0.6,1.4-1.4,1.4H36c2.7,0,4.9-2.2,4.9-4.9V0H26.3z"/>
		<path d="M13.3,21.1c-0.7,0-1.2,0.5-1.2,1.2v6.2h6.2c0.7,0,1.2-0.5,1.2-1.2v-6.2C19.5,21.1,13.3,21.1,13.3,21.1z"/>
		<path d="M14.6,40.6L14.6,40.6c2.7,0,4.9-2.2,4.9-4.9v-7.4c0,0.8-0.6,1.4-1.4,1.4h-1.2v6c0,1.3-1,2.3-2.3,2.3h-12V26
			c0-1.3,1-2.3,2.3-2.3h6v-1.2c0-0.8,0.6-1.4,1.4-1.4H4.9C2.2,21.1,0,23.3,0,26v14.6H14.6z"/>
	</g>
	<g>
		<path d="M65.2,2c0,1.1-0.8,2-2.1,2c-1.1,0-2-0.9-2-2s0.9-2,2-2C64.4,0,65.2,0.9,65.2,2z M61.6,25V7.1h3.3V25H61.6z"/>
		<path d="M68.4,11.9c0-1.8,0-3.4-0.1-4.8h2.9l0.2,3h0.1c0.9-1.7,3-3.4,5.9-3.4c2.5,0,6.3,1.5,6.3,7.6V25h-3.3V14.6
			c0-2.9-1.1-5.3-4.1-5.3c-2.1,0-3.8,1.5-4.4,3.3c-0.1,0.4-0.2,1-0.2,1.5V25h-3.3V11.9z"/>
	</g>
	<g>
		<path d="M90.9,3.3v4.8h4.4v2.3h-4.4v9.1c0,2.1,0.6,3.3,2.3,3.3c0.8,0,1.4-0.1,1.8-0.2l0.1,2.3c-0.6,0.2-1.5,0.4-2.7,0.4
			c-1.4,0-2.6-0.5-3.3-1.3c-0.9-0.9-1.2-2.4-1.2-4.4v-9.2h-2.6V8.1h2.6v-4L90.9,3.3z"/>
		<path d="M98.7,17.1c0.1,4.1,2.7,5.9,5.8,5.9c2.2,0,3.5-0.4,4.7-0.9l0.5,2.2c-1.1,0.5-2.9,1-5.6,1c-5.2,0-8.3-3.4-8.3-8.5
			s3-9.1,7.9-9.1c5.5,0,7,4.8,7,7.9c0,0.6-0.1,1.1-0.1,1.4H98.7V17.1z M107.7,14.9c0-2-0.8-5-4.3-5c-3.1,0-4.5,2.9-4.7,5H107.7z"/>
		<path d="M124.8,24.3c-0.8,0.4-2.6,1-4.8,1c-5.1,0-8.4-3.5-8.4-8.6c0-5.2,3.6-9,9.1-9c1.8,0,3.4,0.5,4.3,0.9l-0.7,2.4
			c-0.7-0.4-1.9-0.8-3.6-0.8c-3.9,0-6,2.9-6,6.4c0,3.9,2.5,6.3,5.9,6.3c1.7,0,2.9-0.5,3.8-0.8L124.8,24.3z"/>
		<path d="M126.6,12.7c0-1.7,0-3.2-0.1-4.6h2.7l0.2,2.8h0.1c0.8-1.6,2.8-3.2,5.6-3.2c2.3,0,6,1.4,6,7.2V25H138v-9.7c0-2.7-1-5-3.9-5
			c-2,0-3.6,1.4-4.1,3.1c-0.1,0.4-0.2,0.9-0.2,1.4V25h-3.1V12.7H126.6z"/>
		<path d="M159.5,16.4c0,6.2-4.3,9-8.4,9c-4.6,0-8.1-3.3-8.1-8.7c0-5.6,3.7-9,8.4-9C156.2,7.7,159.5,11.2,159.5,16.4z M146.1,16.6
			c0,3.7,2.1,6.5,5.1,6.5c2.9,0,5.1-2.8,5.1-6.6c0-2.9-1.4-6.5-5.1-6.5C147.7,10,146.1,13.4,146.1,16.6z"/>
		<path d="M162.8,8.1l3.3,9.5c0.6,1.5,1,2.9,1.4,4.3h0.1c0.4-1.4,0.9-2.8,1.4-4.3l3.3-9.5h3.2L168.9,25H166l-6.4-16.9H162.8z"/>
		<path d="M186,25l-0.2-2.1h-0.1c-0.9,1.3-2.8,2.5-5.2,2.5c-3.4,0-5.2-2.4-5.2-4.8c0-4.1,3.6-6.3,10.1-6.3V14c0-1.4-0.4-3.9-3.8-3.9
			c-1.6,0-3.2,0.5-4.4,1.3l-0.7-2c1.4-0.9,3.4-1.5,5.5-1.5c5.2,0,6.4,3.5,6.4,6.9v6.3c0,1.5,0.1,2.9,0.3,4L186,25L186,25z
			 M185.6,16.4c-3.3-0.1-7.1,0.5-7.1,3.8c0,2,1.3,2.9,2.9,2.9c2.2,0,3.6-1.4,4.1-2.8c0.1-0.3,0.2-0.7,0.2-1L185.6,16.4L185.6,16.4z"
			/>
	</g>
	<g>
		<path d="M69.8,39.7c-0.5,0.3-1.6,0.5-3,0.5c-3.2,0-5.6-2-5.6-5.7c0-3.5,2.4-5.9,5.9-5.9c1.4,0,2.3,0.3,2.7,0.5l-0.4,1.2
			c-0.6-0.3-1.3-0.5-2.3-0.5c-2.7,0-4.4,1.7-4.4,4.7c0,2.8,1.6,4.6,4.4,4.6c0.9,0,1.8-0.2,2.4-0.5L69.8,39.7z"/>
		<path d="M78.7,35.9c0,3-2.1,4.3-4,4.3c-2.2,0-3.9-1.6-3.9-4.2c0-2.7,1.8-4.3,4-4.3C77.1,31.8,78.7,33.4,78.7,35.9z M72.3,36
			c0,1.8,1,3.1,2.5,3.1c1.4,0,2.5-1.3,2.5-3.2c0-1.4-0.7-3.1-2.4-3.1C73,32.9,72.3,34.5,72.3,36z"/>
		<path d="M80.6,34.1c0-0.8,0-1.5-0.1-2.2h1.3l0.1,1.3l0,0c0.4-0.8,1.3-1.5,2.7-1.5c1.1,0,2.9,0.7,2.9,3.5v4.9H86v-4.7
			c0-1.3-0.5-2.4-1.9-2.4c-1,0-1.7,0.7-2,1.5C82,34.7,82,34.9,82,35.2v4.9h-1.5L80.6,34.1L80.6,34.1z"/>
		<path d="M89.7,38.6c0.4,0.3,1.2,0.6,1.9,0.6c1.1,0,1.6-0.5,1.6-1.2s-0.4-1.1-1.5-1.5c-1.5-0.5-2.2-1.3-2.2-2.3
			c0-1.3,1.1-2.4,2.8-2.4c0.8,0,1.5,0.2,2,0.5l-0.3,1c-0.3-0.2-0.9-0.5-1.7-0.5c-0.9,0-1.4,0.5-1.4,1.1c0,0.7,0.5,1,1.5,1.4
			c1.4,0.5,2.1,1.2,2.1,2.5c0,1.4-1.1,2.4-3,2.4c-0.9,0-1.7-0.2-2.3-0.6L89.7,38.6z"/>
		<path d="M98.3,29.6v2.3h2.1V33h-2.1v4.4c0,1,0.3,1.6,1.1,1.6c0.4,0,0.7-0.1,0.9-0.1l0.1,1.1c-0.3,0.1-0.7,0.2-1.3,0.2
			c-0.7,0-1.2-0.2-1.6-0.6c-0.4-0.4-0.6-1.2-0.6-2.1v-4.4h-1.3V32h1.3v-2L98.3,29.6z"/>
		<path d="M102.1,34.5c0-1,0-1.8-0.1-2.5h1.3v1.6h0.1c0.4-1.1,1.3-1.8,2.3-1.8c0.2,0,0.3,0,0.4,0.1v1.4c-0.2,0-0.3-0.1-0.5-0.1
			c-1,0-1.8,0.8-2,1.9c0,0.2-0.1,0.4-0.1,0.7v4.3H102L102.1,34.5L102.1,34.5z"/>
		<path d="M114.4,37.8c0,0.8,0,1.6,0.1,2.2h-1.3l-0.1-1.3l0,0c-0.4,0.7-1.2,1.5-2.7,1.5c-1.3,0-2.8-0.7-2.8-3.6v-4.8h1.5v4.5
			c0,1.5,0.5,2.6,1.8,2.6c1,0,1.7-0.7,1.9-1.3c0.1-0.2,0.1-0.5,0.1-0.8v-5h1.5V37.8z"/>
		<path d="M122.7,39.8c-0.4,0.2-1.2,0.5-2.3,0.5c-2.5,0-4-1.7-4-4.1c0-2.5,1.7-4.3,4.4-4.3c0.9,0,1.6,0.2,2,0.4l-0.3,1.1
			c-0.4-0.2-0.9-0.4-1.7-0.4c-1.9,0-2.9,1.4-2.9,3.1c0,1.9,1.2,3,2.8,3c0.8,0,1.4-0.2,1.8-0.4L122.7,39.8z"/>
		<path d="M126.4,29.6v2.3h2.1V33h-2.1v4.4c0,1,0.3,1.6,1.1,1.6c0.4,0,0.7-0.1,0.9-0.1l0.1,1.1c-0.3,0.1-0.7,0.2-1.3,0.2
			c-0.7,0-1.2-0.2-1.6-0.6c-0.4-0.4-0.6-1.2-0.6-2.1v-4.4h-1.3V32h1.3v-2L126.4,29.6z"/>
		<path d="M137.4,35.9c0,3-2.1,4.3-4,4.3c-2.2,0-3.9-1.6-3.9-4.2c0-2.7,1.8-4.3,4-4.3C135.8,31.8,137.4,33.4,137.4,35.9z M131,36
			c0,1.8,1,3.1,2.5,3.1c1.4,0,2.5-1.3,2.5-3.2c0-1.4-0.7-3.1-2.4-3.1C131.7,32.9,131,34.5,131,36z"/>
		<path d="M139.3,34.5c0-1,0-1.8-0.1-2.5h1.3v1.6h0.1c0.4-1.1,1.3-1.8,2.3-1.8c0.2,0,0.3,0,0.4,0.1v1.4c-0.2,0-0.3-0.1-0.5-0.1
			c-1,0-1.8,0.8-2,1.9c0,0.2-0.1,0.4-0.1,0.7v4.3h-1.5v-5.6H139.3z"/>
		<path d="M149.2,40.1l-0.1-1H149c-0.5,0.6-1.3,1.2-2.5,1.2c-1.6,0-2.5-1.2-2.5-2.3c0-2,1.7-3,4.9-3v-0.2c0-0.7-0.2-1.9-1.8-1.9
			c-0.8,0-1.5,0.2-2.1,0.6l-0.3-1c0.7-0.4,1.6-0.7,2.7-0.7c2.5,0,3.1,1.7,3.1,3.3v3c0,0.7,0,1.4,0.1,1.9h-1.4V40.1z M149,35.9
			c-1.6,0-3.4,0.3-3.4,1.8c0,1,0.6,1.4,1.4,1.4c1.1,0,1.7-0.7,2-1.4c0-0.2,0.1-0.3,0.1-0.5v-1.3H149z"/>
	</g>
	<rect x="50.8" width="1.5" height="40.2"/>
</g>
</svg>
