<svg xmlns="http://www.w3.org/2000/svg" xmlns:xlink="http://www.w3.org/1999/xlink" id="Capa_1" data-name="Capa 1" viewBox="0 0 1247 432"><defs><style>.cls-1{fill:#879293}.cls-2{fill:#aebabb}.cls-3{fill:#9da7a8}.cls-6{fill:#fff}.cls-8{font-family:HoloLensMDL2Assets,HoloLens MDL2 Assets}.cls-9{letter-spacing:-.02em}.cls-11{letter-spacing:0}.cls-14{stroke:#fff;stroke-miterlimit:10;stroke-width:.25px}</style><radialGradient id="radial-gradient" cx="-436.59" cy="1399.31" r="647.32" gradientTransform="matrix(.79 0 0 .81 1404.85 -984.59)" gradientUnits="userSpaceOnUse"><stop offset="0" stop-color="#30a3dc"/><stop offset=".22" stop-color="#2c9fd7"/><stop offset=".5" stop-color="#2195c7"/><stop offset=".8" stop-color="#1085ae"/><stop offset="1" stop-color="#017799"/></radialGradient><radialGradient id="radial-gradient-2" cx="-436.6" cy="1399.32" r="647.3" xlink:href="#radial-gradient"/></defs><path d="M1192.07 263.92l-68.77-93.66a1.66 1.66 0 0 1-.3-1.26l3.69-22.53a1.71 1.71 0 0 1 3.07-.74l87.38 119a1.72 1.72 0 0 1-1.6 2.72l-22.29-2.81a1.72 1.72 0 0 1-1.18-.72z" class="cls-1"/><path d="M1217.65 265.39l-88.55-120.58a3.06 3.06 0 0 1 .6-4.23l9.66-7.46a3.06 3.06 0 0 1 4.33.61l88.54 120.58a3.05 3.05 0 0 1-.59 4.23L1222 266a3 3 0 0 1-4.35-.61zM1111.32 93h-68.08a3 3 0 0 0-2.65 4.51l7.05 12.62a3 3 0 0 0 2.64 1.55h61a3 3 0 0 0 3-3V96a3 3 0 0 0-2.96-3z" class="cls-2"/><path d="M961.18 111.67h55.89L1028.49 93h-67.32z" class="cls-3"/><path fill="url(#radial-gradient)" d="M1018.4 271.7c7.79-9.68 9.85-20.8 8.26-31.7s-6.23-24.25-13.93-40.05q-7.82-16.5-11.22-25a94.86 94.86 0 0 1-4.8-16.52c-.87 1.17-1.73 2.35-2.62 3.5-18.44 24-41 30.48-48.74 56.78-18.63 63.45 45.26 87.56 73.05 52.99z"/><path fill="url(#radial-gradient-2)" d="M1035.44 106.37a56.17 56.17 0 0 0-7.76 9.09 49.91 49.91 0 0 0-7.92 17 42.45 42.45 0 0 0-.43 17.29 89.87 89.87 0 0 0 5.38 18.18q3.84 9.41 10.91 24.62 11.91 25.26 15.18 44.14t-9.93 37.93a55.31 55.31 0 0 1-21.41 18.21 50.69 50.69 0 0 1-13 4.24 49.24 49.24 0 0 0 8 0c68.59-5.51 65.45-71.06 65.32-72.6-1.78-23.59-8.78-54.93-44.34-118.1z"/><path d="M1049.48 113.47q5 9.25 9.17 17.56a1.22 1.22 0 0 0 1.1.68h35.2a1.23 1.23 0 0 0 .9-.39l16.56-17.6a1.23 1.23 0 0 0-.9-2.08h-61a1.24 1.24 0 0 0-1.03 1.83zM1004.44 131.73c4.32-6.64 8.51-13.38 12.63-20.08h-55.89l18.55 20.07z" class="cls-1"/><path d="M987.18 156.37c5.56-7.23 10.83-14.85 15.93-22.61a1.31 1.31 0 0 0-1.1-2h-20.87a1.31 1.31 0 0 0-1.31 1.31v28.42a1.32 1.32 0 0 0 2.28.9c1.73-1.9 3.43-3.88 5.07-6.02z" class="cls-3"/><path d="M1122.94 169.74L1084.85 199a168.41 168.41 0 0 1 3.73 24.88c0 .3 2.23 31.68-18.09 56.12a68.57 68.57 0 0 1-25.5 19l102.55-.09 45-34.36z" class="cls-2"/><path d="M1019.78 240.3q-1.93-14-11.33-34.13-6.35-14.07-9.12-21.27a83.2 83.2 0 0 1-3.89-14.05c-3.53 5.42-.59 14.05-.59 14.05q2.77 7.22 9.12 21.27 9.4 20.19 11.33 34.13c1.29 9.29-.38 18.76-6.71 27a33.32 33.32 0 0 1-24.31 13.37 33.14 33.14 0 0 0 28.78-13.37c6.34-8.24 8.01-17.71 6.72-27zM1073.15 218.48c-2-19.62-8.66-40.79-31-92a44.27 44.27 0 0 0 2.22 11.78c41 92.48 21.39 120.67 14.41 133.88 18.03-17.74 14.48-52.65 14.37-53.66z" class="cls-6"/><path d="M1095.5 190.84v-59.11H1059a376.09 376.09 0 0 1 25.85 67.27z" class="cls-3"/><text font-family="HPSimplified-Regular,HP Simplified" font-size="44" transform="translate(51.98 352)">Un<tspan x="49.19" y="0" class="cls-8"> </tspan><tspan x="61.24" y="0" class="cls-9">c</tspan><tspan x="79.24" y="0">omp</tspan><tspan x="160.86" y="0" letter-spacing="-.02em">r</tspan><tspan x="175.6" y="0">omiso</tspan><tspan x="286.74" y="0" class="cls-8"> </tspan><tspan x="298.79" y="0" class="cls-9">c</tspan><tspan x="316.79" y="0">on</tspan><tspan x="362.99" y="0" class="cls-8"> </tspan><tspan x="375.04" y="0" class="cls-11">l</tspan><tspan x="386.3" y="0">a</tspan><tspan x="408.21" y="0" class="cls-8"> </tspan><tspan x="420.27" y="0">sociedad,</tspan><tspan x="592.08" y="0" class="cls-8"> </tspan><tspan x="604.14" y="0">un</tspan><tspan x="650.25" y="0" class="cls-8"> </tspan><tspan x="662.3" y="0" class="cls-11">p</tspan><tspan x="685.14" y="0">ac</tspan><tspan x="725.7" y="0" letter-spacing="-.01em">t</tspan><tspan x="740.45" y="0">o</tspan><tspan x="763.59" y="0" class="cls-8"> </tspan><tspan x="775.64" y="0" class="cls-9">c</tspan><tspan x="793.64" y="0">on</tspan><tspan x="839.84" y="0" class="cls-8"> </tspan><tspan x="851.89" y="0" class="cls-11">l</tspan><tspan x="863.15" y="0">a</tspan><tspan x="885.06" y="0" class="cls-8"> </tspan><tspan x="897.12" y="0">e</tspan><tspan x="918.94" y="0" class="cls-9">c</tspan><tspan x="936.94" y="0">o</tspan><tspan x="960.08" y="0" letter-spacing="-.02em">l</tspan><tspan x="970.73" y="0">ogía</tspan></text><path d="M92.16 92.52H168v8.25h-9.7a16.26 16.26 0 0 0-4 2.47 16.87 16.87 0 0 0-4 5 21.7 21.7 0 0 0-1.62 4.12 22.37 22.37 0 0 0-.8 6.6v125.27a52.85 52.85 0 0 1-4.88 20.61 66.94 66.94 0 0 1-12.91 15.67 65.81 65.81 0 0 1-22.58 13.19 87.41 87.41 0 0 1-47.59 0 106.88 106.88 0 0 1-23.39-13.19 108.14 108.14 0 0 1-16.89-15.62l-.46-4.24 25.33-46.76a.31.31 0 0 1 .27-.17h4.5a.17.17 0 0 1 .16.17v7.18a.32.32 0 0 1 0 .14 42.43 42.43 0 0 0 0 36.21c5.92 13.88 19.56 22.46 33.85 21.44 12.65-.91 23.88-9.22 29-21.44q1.61-5 3.23-9.89v-127.8a22.08 22.08 0 0 0-4-13.19 20.38 20.38 0 0 0-6.45-5.77H92.16zM343.81 92.52v5a21.1 21.1 0 0 1 15.33 7.42 22 22 0 0 1 4.86 15.61v144.29c.09 1.1.7 9.59-5.65 15.67a18.34 18.34 0 0 1-11.35 4.95v8.24h54.85v-8.24a18.5 18.5 0 0 1-13.71-4.13c-7.29-6.18-6.54-15.67-6.46-16.49V118.91h2.42l52.43 102.23h4l57.27-105.53h1.61v152.53a17.8 17.8 0 0 1-5.64 13.19 16.64 16.64 0 0 1-11.3 4.13v8.24h70.18v-8.24a20.42 20.42 0 0 1-10.49-3.3c-7.21-4.81-10.83-14.42-9.68-24.74V126.33c-.88-11.65 3.77-21.56 11.29-24.74a15.4 15.4 0 0 1 8.88-.82v-8.25h-73.4v8.25c2.42-.34 3.51.33 4 .82 2.36 2.26.89 8.87-4 16.49l-29.85 56.07h-4.83l-33.07-61.84a11.16 11.16 0 0 1-1.62-6.6 10.94 10.94 0 0 1 1.62-4.94h4.84v-8.25zM220.41 100.77v-8.25h60.49v8.25a10.42 10.42 0 0 0-2.42 1.64 10.62 10.62 0 0 0-2.42 3.3 8.63 8.63 0 0 0-.8 3.3 9.61 9.61 0 0 0 .8 4.12c20.64 53 34.95 108.29 52.43 162.43a15.2 15.2 0 0 0 5.65 7.42 14.67 14.67 0 0 0 9.67 2.48v8.24h-65.33v-8.24a10.64 10.64 0 0 0 7.26-2.48A10.82 10.82 0 0 0 289 278a42.2 42.2 0 0 0 0-23 77.39 77.39 0 0 0-12.91-21.44c-21.24-24.86-51.94-27.57-60.49-28C208.85 225 203.35 245 195.41 264a17 17 0 0 0-1.62 8.24 17.89 17.89 0 0 0 1.62 5.78 12 12 0 0 0 3.22 4.94 11.35 11.35 0 0 0 8.87 2.48v8.24h-57.26v-8.24a25.93 25.93 0 0 0 12.9-4.95 23.48 23.48 0 0 0 7.26-8.25c22.71-49.33 37.1-102.24 55.66-153.35a19.2 19.2 0 0 0 1.61-9.9c-.27-2.44-.74-4.55-1.61-5.77a6.57 6.57 0 0 0-2.42-1.65 8.75 8.75 0 0 0-3.23-.8zm54 105.53l-29.84-84.1h-2.42c-6.72 22.26-14.25 44.53-21 66.79a80.32 80.32 0 0 1 16.93 1.65A83.72 83.72 0 0 1 272 206.3zM620.84 101.08v-8.24h58.73v8.24a9.82 9.82 0 0 0-2.35 1.64 10.41 10.41 0 0 0-2.35 3.3 8.82 8.82 0 0 0-.78 3.29 9.81 9.81 0 0 0 .78 4.11c20 52.89 33.93 108.12 50.9 162.17a15.1 15.1 0 0 0 5.48 7.41 14 14 0 0 0 9.4 2.47v8.23h-63.43v-8.23a10.1 10.1 0 0 0 7-2.47 10.83 10.83 0 0 0 3.13-4.94 43.35 43.35 0 0 0 0-23.05 77.65 77.65 0 0 0-12.53-21.4c-20.63-24.83-50.43-27.53-58.73-28-6.52 19.48-11.86 39.45-19.57 58.45a17.27 17.27 0 0 0-1.52 8.24 18.26 18.26 0 0 0 1.57 5.76 12 12 0 0 0 3.13 4.94 10.79 10.79 0 0 0 8.61 2.47v8.23h-55.59v-8.23a24.77 24.77 0 0 0 12.52-4.94 23.16 23.16 0 0 0 7-8.23c22-49.26 36-102.08 54-153.11a19.66 19.66 0 0 0 1.57-9.88c-.26-2.44-.72-4.55-1.57-5.76a6.11 6.11 0 0 0-2.24-1.65 8.45 8.45 0 0 0-3.16-.82zm52.46 105.36l-29-84H642c-6.52 22.23-13.83 44.45-20.36 66.68a76.41 76.41 0 0 1 16.45 1.64A80.32 80.32 0 0 1 671 206.44zM797.11 270.61a17.52 17.52 0 0 0 3.22 9.07 17 17 0 0 0 7.26 5.78h7.26v8.24h-70.17v-8.24a16 16 0 0 0 10.48-2.46c7-4.65 7.25-13.23 7.26-14V113.13a14.84 14.84 0 0 0-4-8.24 14.23 14.23 0 0 0-8.07-4.12h-5.64v-8.25h129.02a34.73 34.73 0 0 1 12.9 6.6c4.72 3.83 7.78 7.91 8.88 10.72 1.23 3.15 1.65 7.8 1.61 13.19 0 5-.53 9.31-1.61 12.37-2 5.73-7 13.55-14.52 21.43-8.64 9-17.62 16.38-23.39 19v2.47a220.89 220.89 0 0 1 22.58 30.51 146.77 146.77 0 0 1 10.49 19.78c2.61 5.77 3 6.36 8.06 19.79 6.67 17.64 8.91 21.41 10.49 23.91a60.44 60.44 0 0 0 11.29 13.2h4.84v8.24h-62.91v-8.24a19.19 19.19 0 0 0 6.45-1.65 18.68 18.68 0 0 0 4-2.48 46.38 46.38 0 0 0 .81-9.07 47 47 0 0 0-.81-8.24c-1.87-5.08-4-10.32-6.45-15.67a231 231 0 0 0-30.65-49.47l-8.06-10.72h-3.23c-4.58 2.88-10.26 6.81-18.5 8.81-3.82.93-5.76 1.65-8.89 1.88zm2.42-86.61c7.55-2 19.93-5.85 29.84-10.72 10.31-5.06 17.83-11.52 24.2-16.49 1.36-1.07 9.25-9.81 9.67-21.43.42-11.2-7.81-22-19.35-26.39h-39.53a18.17 18.17 0 0 0-6.45 5.77 18.81 18.81 0 0 0-3.22 9.9V184z" class="cls-14"/></svg>