<svg xmlns="http://www.w3.org/2000/svg" id="Capa_1" x="0" y="0" version="1.1" viewBox="0 0 1247 254.6" xml:space="preserve"><style>.st0{fill:#fff}.st1{fill:#879293}.st2{fill:#aebabb}.st3{fill:#9da7a8}</style><path d="M87.5 34.1h75.8v8.1h-9.7c-1.4.6-2.8 1.4-4 2.4-1.6 1.3-3 3-4 4.8-1.7 3.2-2.5 6.8-2.4 10.5v122.6c-.2 7-1.9 13.8-4.8 20.2-8.1 13.3-20.7 23.3-35.6 28.2-15.6 4.3-32 4.3-47.6 0-15.4-6.2-29.2-15.8-40.2-28.1l-.5-4.1L39.8 153c.1-.1.2-.2.3-.2h4.5c.1 0 .2.1.2.2v7.1c-5.4 11.2-5.4 24.2 0 35.4 6 13.6 19.6 22 33.9 21 12.8-1 24-9.1 29-21 1.1-3.2 2.1-6.5 3.2-9.7v-125c.1-4.6-1.3-9.2-4-12.9-1.7-2.3-3.9-4.2-6.4-5.7h-13v-8.1zM339.1 34.1v4.8c11.4.2 20.5 9.6 20.3 21.1 0 .5 0 1-.1 1.5v141.1c.1 1.1.7 9.4-5.6 15.3-3.1 2.9-7.1 4.6-11.3 4.9v8h54.9v-8c-4.9.5-9.9-.9-13.7-4-7.3-6-6.5-15.3-6.5-16.1V59.9h2.4l52.4 100h4l57.3-103.2h1.6v149.2c0 4.9-2 9.6-5.6 12.9-3.1 2.7-7.2 4.1-11.3 4v8.1H548v-8c-3.7-.1-7.3-1.2-10.5-3.2-7.2-4.7-10.8-14.1-9.7-24.2V67.2c-.9-11.4 3.8-21.1 11.3-24.2 2.8-1.1 5.9-1.4 8.9-.8v-8.1h-73.4v8.1c2.4-.3 3.5.3 4 .8 2.4 2.2.9 8.7-4 16.1l-29.9 54.8H440l-33.1-60.5c-2.2-3.4-2.2-7.9 0-11.3h4.8V34h-72.6v.1zM215.7 42.2v-8.1h60.5v8.1c-.9.4-1.7 1-2.4 1.6-1 .9-1.8 2-2.4 3.2-.5 1-.8 2.1-.8 3.2 0 1.4.3 2.7.8 4 20.6 51.8 35 105.9 52.4 158.9 2.3 6.4 8.6 10.4 15.3 9.7v8h-65.3v-8c2.6.1 5.2-.8 7.3-2.4 1.5-1.3 2.6-3 3.2-4.8 2.1-7.4 2.1-15.2 0-22.6-3.1-7.7-7.5-14.8-12.9-21-21.3-24.3-51.9-27-60.5-27.4-6.7 19.1-12.2 38.7-20.2 57.3-1.2 2.5-1.8 5.3-1.6 8.1.2 2 .8 3.9 1.6 5.6.7 1.9 1.8 3.5 3.2 4.8 2.5 2 5.7 2.9 8.9 2.4v8h-57.3v-8c4.7-.4 9.1-2.1 12.9-4.8 3-2.1 5.5-4.8 7.3-8.1 22.7-48.3 37.1-100 55.7-150 1.4-3 2-6.4 1.6-9.7-.3-2.4-.7-4.4-1.6-5.7-.7-.7-1.5-1.3-2.4-1.6-1.1-.4-2.1-.7-3.3-.7zm54 103.2l-29.9-82.3h-2.4c-6.7 21.8-14.2 43.6-21 65.3 5.7-.1 11.4.5 16.9 1.6 12.3 2.5 23.9 7.8 33.9 15.3l2.5.1zM616.2 42.5v-8.1h58.7v8.1c-.9.4-1.7 1-2.3 1.6-1 .9-1.8 2-2.3 3.2-.5 1-.7 2.1-.8 3.2 0 1.4.2 2.7.8 4 20 51.7 33.9 105.8 50.9 158.6 1 2.9 2.9 5.5 5.5 7.3 2.8 1.9 6.1 2.8 9.4 2.5v8h-63.5v-8c2.6.1 5-.8 7-2.4 1.5-1.3 2.6-3 3.1-4.8 2.1-7.4 2.1-15.2 0-22.5-3-7.6-7.3-14.7-12.5-20.9-20.6-24.3-50.4-26.9-58.7-27.4-6.5 19.1-11.9 38.6-19.6 57.2-1.2 2.5-1.7 5.3-1.6 8 .2 2 .7 3.9 1.6 5.6.6 1.8 1.7 3.5 3.1 4.8 2.4 2 5.5 2.9 8.6 2.4v8H548v-8c4.5-.4 8.9-2.1 12.5-4.8 2.9-2.1 5.3-4.9 7-8.1 22-48.2 36-99.9 54-149.8 1.4-3 1.9-6.4 1.6-9.7-.1-2-.6-3.9-1.6-5.6-.7-.7-1.5-1.3-2.3-1.6-1-.5-2-.7-3-.8zm52.4 103l-29-82.1h-2.3c-6.5 21.7-13.8 43.5-20.3 65.2 5.5-.1 11 .5 16.5 1.6 12 2.6 23.2 7.8 32.9 15.3h2.2zM792.4 208.3c.4 6.5 4.5 12.1 10.5 14.5h7.3v8H740v-8c3.7.4 7.4-.4 10.5-2.4 7-4.5 7.3-12.9 7.3-13.7V54.3c-.9-6.3-5.8-11.2-12.1-12.1H740v-8.1h129c4.7 1.2 9.1 3.4 12.9 6.4 4.7 3.8 7.8 7.7 8.9 10.5 1.2 3.1 1.7 7.6 1.6 12.9.1 4.1-.4 8.2-1.6 12.1-2 5.6-7 13.3-14.5 21-8.6 8.8-17.6 16-23.4 18.6v2.4c8.4 9.3 16 19.3 22.6 29.8 4 6.2 7.5 12.6 10.5 19.3 2.6 5.6 3 6.2 8.1 19.4 6.7 17.2 8.9 20.9 10.5 23.4 3.1 4.8 6.9 9.2 11.3 12.9h4.8v8h-62.9v-8c3.8-.3 7.5-1.7 10.5-4 .6-2.9.8-5.9.8-8.9 0-2.7-.3-5.4-.8-8.1-1.9-5-4-10.1-6.5-15.3-8.1-17.4-18.4-33.6-30.7-48.4l-8.1-10.5h-3.2c-4.6 2.8-10.3 6.9-18.5 8.9-2.9.8-5.9 1.3-8.9 1.6v70.2zm2.4-84.7c7.6-1.9 19.9-5.7 29.8-10.5 10.3-4.9 17.8-11.3 24.2-16.1 1.4-1.1 9.3-9.6 9.7-21 .4-11-7.8-21.5-19.4-25.8h-39.5c-2.6 1.3-4.8 3.3-6.5 5.6-2 2.9-3.1 6.2-3.2 9.7v58.1h4.9z" class="st0"/><path d="M1178.9 196.7L1113 107c-.3-.4-.4-.8-.3-1.2l3.5-21.6c.1-.9 1-1.5 1.9-1.4.5.1.9.3 1.1.7l83.7 114c.5.7.4 1.8-.4 2.3-.3.2-.8.4-1.2.3l-21.4-2.7c-.3-.1-.7-.3-1-.7z" class="st1"/><path d="M1203.4 198.1l-84.8-115.6c-.9-1.3-.7-3 .6-4l9.3-7.1c1.3-1 3.1-.8 4.1.5v.1l84.8 115.5c.9 1.3.7 3.1-.6 4.1l-9.3 7.1c-1.2 1.1-3 .8-4.1-.6.1.1.1.1 0 0zM1101.6 32.9h-65.2c-1.6 0-2.9 1.3-2.9 2.9 0 .5.1 1 .4 1.4l6.8 12.1c.5.9 1.5 1.5 2.5 1.5h58.5c1.6 0 2.9-1.3 2.9-2.9v-12c-.1-1.6-1.4-3-3-3z" class="st2"/><path d="M957.7 50.9h53.5l11-17.8h-64.5v17.8z" class="st3"/><path fill="#2ba0d7" d="M1012.5 204.2c7.5-9.3 9.4-19.9 7.9-30.4s-6-23.2-13.3-38.4c-5-10.5-8.6-18.5-10.8-23.9-2-5.1-3.5-10.4-4.6-15.8-.8 1.1-1.7 2.3-2.5 3.4-17.7 23-39.3 29.2-46.7 54.4-17.8 60.7 43.4 83.8 70 50.7z"/><path fill="#2a9fd6" d="M1028.8 45.7c-2.8 2.6-5.3 5.6-7.4 8.7-3.5 4.9-6.1 10.5-7.6 16.3-1.3 5.4-1.4 11.1-.4 16.6 1.1 6 2.8 11.8 5.2 17.4 2.5 6 5.9 13.9 10.4 23.6 7.6 16.1 12.5 30.2 14.6 42.3s-1.1 24.2-9.6 36.3a52.31 52.31 0 0 1-20.5 17.4c-3.9 1.9-8.1 3.3-12.4 4.1 2.5.2 5.1.2 7.6 0 65.7-5.3 62.7-68.1 62.6-69.6-1.7-22.5-8.4-52.5-42.5-113.1z"/><path d="M1042.3 52.6c3.2 5.9 6.1 11.5 8.8 16.8.2.4.6.6 1.1.6h33.7c.3 0 .6-.1.9-.4l15.9-16.9c.4-.5.4-1.2-.1-1.7-.2-.2-.5-.3-.8-.3h-58.4c-.7 0-1.2.5-1.2 1.2 0 .3 0 .5.1.7zM999.1 70c4.1-6.4 8.2-12.8 12.1-19.2h-53.5L975.5 70h23.6z" class="st1"/><path d="M982.6 93.7c5.3-6.9 10.4-14.2 15.3-21.7.4-.6.2-1.4-.4-1.7-.2-.1-.4-.2-.7-.2h-20c-.7 0-1.3.5-1.3 1.2v27.2c0 .7.6 1.3 1.3 1.3.3 0 .7-.1.9-.4 1.7-1.8 3.3-3.7 4.9-5.7z" class="st3"/><path d="M1112.7 106.5l-36.5 28c1.8 7.8 3 15.8 3.6 23.9 0 .3 2.1 30.4-17.3 53.8-6.6 7.9-15 14.2-24.4 18.3l98.3-.1 43.1-32.9-66.8-91z" class="st2"/><path d="M1013.8 174.1c-1.2-8.9-4.8-19.8-10.8-32.7-4.1-9-7-15.8-8.7-20.4-1.6-4.4-2.9-8.9-3.7-13.5-3.4 5.2-.6 13.5-.6 13.5 1.8 4.6 4.7 11.4 8.7 20.4 6 12.9 9.6 23.8 10.9 32.7 1.2 8.9-.4 18-6.4 25.9-5.5 7.4-14 12.1-23.3 12.8 10.8.7 21.2-4.1 27.6-12.8 6-7.9 7.6-17 6.3-25.9zM1065 153.2c-2-18.8-8.3-39.1-29.7-88.1.2 3.8.9 7.6 2.1 11.3 39.3 88.6 20.5 115.6 13.8 128.3 17.3-17.1 13.9-50.5 13.8-51.5z" class="st0"/><path d="M1086.4 126.7V70h-35c10.3 20.6 18.6 42.2 24.8 64.4l10.2-7.7z" class="st3"/></svg>