<?xml version="1.0" encoding="utf-8"?>
<!-- Generator: Adobe Illustrator 24.0.2, SVG Export Plug-In . SVG Version: 6.00 Build 0)  -->
<svg version="1.1" id="Capa_1" xmlns="http://www.w3.org/2000/svg" xmlns:xlink="http://www.w3.org/1999/xlink" x="0px" y="0px"
	 viewBox="0 0 1247 254.6" style="enable-background:new 0 0 1247 254.6;" xml:space="preserve">
<style type="text/css">
	.st0{fill:#FFFFFF;}
	.st1{fill:#879293;}
	.st2{fill:#AEBABB;}
	.st3{fill:#9DA7A8;}
	.st4{fill:#2BA0D7;}
	.st5{fill:#2A9FD6;}
</style>
<title>logo_JAMAR_blanco</title>
<path class="st0" d="M87.5,34.1h75.8v8.1h-9.7c-1.4,0.6-2.8,1.4-4,2.4c-1.6,1.3-3,3-4,4.8c-1.7,3.2-2.5,6.8-2.4,10.5v122.6
	c-0.2,7-1.9,13.8-4.8,20.2c-8.1,13.3-20.7,23.3-35.6,28.2c-15.6,4.3-32,4.3-47.6,0C39.8,224.7,26,215.1,15,202.8l-0.5-4.1L39.8,153
	c0.1-0.1,0.2-0.2,0.3-0.2h4.5c0.1,0,0.2,0.1,0.2,0.2v7v0.1c-5.4,11.2-5.4,24.2,0,35.4c6,13.6,19.6,22,33.9,21c12.8-1,24-9.1,29-21
	c1.1-3.2,2.1-6.5,3.2-9.7v-125c0.1-4.6-1.3-9.2-4-12.9c-1.7-2.3-3.9-4.2-6.4-5.7h-13V34.1z"/>
<path class="st0" d="M339.1,34.1v4.8c11.4,0.2,20.5,9.6,20.3,21.1c0,0.5,0,1-0.1,1.5v141.1c0.1,1.1,0.7,9.4-5.6,15.3
	c-3.1,2.9-7.1,4.6-11.3,4.9v8h54.9v-8c-4.9,0.5-9.9-0.9-13.7-4c-7.3-6-6.5-15.3-6.5-16.1V59.9h2.4l52.4,100h4l57.3-103.2h1.6v149.2
	c0,4.9-2,9.6-5.6,12.9c-3.1,2.7-7.2,4.1-11.3,4v8.1H548v-8c-3.7-0.1-7.3-1.2-10.5-3.2c-7.2-4.7-10.8-14.1-9.7-24.2V67.2
	c-0.9-11.4,3.8-21.1,11.3-24.2c2.8-1.1,5.9-1.4,8.9-0.8v-8.1h-73.4v8.1c2.4-0.3,3.5,0.3,4,0.8c2.4,2.2,0.9,8.7-4,16.1l-29.9,54.8
	H440l-33.1-60.5c-2.2-3.4-2.2-7.9,0-11.3h4.8V34h-72.6V34.1z"/>
<path class="st0" d="M215.7,42.2v-8.1h60.5v8.1c-0.9,0.4-1.7,1-2.4,1.6c-1,0.9-1.8,2-2.4,3.2c-0.5,1-0.8,2.1-0.8,3.2
	c0,1.4,0.3,2.7,0.8,4c20.6,51.8,35,105.9,52.4,158.9c2.3,6.4,8.6,10.4,15.3,9.7v8h-65.3v-8c2.6,0.1,5.2-0.8,7.3-2.4
	c1.5-1.3,2.6-3,3.2-4.8c2.1-7.4,2.1-15.2,0-22.6c-3.1-7.7-7.5-14.8-12.9-21c-21.3-24.3-51.9-27-60.5-27.4
	c-6.7,19.1-12.2,38.7-20.2,57.3c-1.2,2.5-1.8,5.3-1.6,8.1c0.2,2,0.8,3.9,1.6,5.6c0.7,1.9,1.8,3.5,3.2,4.8c2.5,2,5.7,2.9,8.9,2.4v8
	h-57.3v-8c4.7-0.4,9.1-2.1,12.9-4.8c3-2.1,5.5-4.8,7.3-8.1c22.7-48.3,37.1-100,55.7-150c1.4-3,2-6.4,1.6-9.7
	c-0.3-2.4-0.7-4.4-1.6-5.7c-0.7-0.7-1.5-1.3-2.4-1.6C217.9,42.5,216.9,42.2,215.7,42.2z M269.7,145.4l-29.9-82.3h-2.4
	c-6.7,21.8-14.2,43.6-21,65.3c5.7-0.1,11.4,0.5,16.9,1.6c12.3,2.5,23.9,7.8,33.9,15.3L269.7,145.4L269.7,145.4z"/>
<path class="st0" d="M616.2,42.5v-8.1h58.7v8.1c-0.9,0.4-1.7,1-2.3,1.6c-1,0.9-1.8,2-2.3,3.2c-0.5,1-0.7,2.1-0.8,3.2
	c0,1.4,0.2,2.7,0.8,4c20,51.7,33.9,105.8,50.9,158.6c1,2.9,2.9,5.5,5.5,7.3c2.8,1.9,6.1,2.8,9.4,2.5v8h-63.5v-8c2.6,0.1,5-0.8,7-2.4
	c1.5-1.3,2.6-3,3.1-4.8c2.1-7.4,2.1-15.2,0-22.5c-3-7.6-7.3-14.7-12.5-20.9c-20.6-24.3-50.4-26.9-58.7-27.4
	c-6.5,19.1-11.9,38.6-19.6,57.2c-1.2,2.5-1.7,5.3-1.6,8c0.2,2,0.7,3.9,1.6,5.6c0.6,1.8,1.7,3.5,3.1,4.8c2.4,2,5.5,2.9,8.6,2.4v8H548
	v-8c4.5-0.4,8.9-2.1,12.5-4.8c2.9-2.1,5.3-4.9,7-8.1c22-48.2,36-99.9,54-149.8c1.4-3,1.9-6.4,1.6-9.7c-0.1-2-0.6-3.9-1.6-5.6
	c-0.7-0.7-1.5-1.3-2.3-1.6C618.2,42.8,617.2,42.6,616.2,42.5z M668.6,145.5l-29-82.1h-2.3c-6.5,21.7-13.8,43.5-20.3,65.2
	c5.5-0.1,11,0.5,16.5,1.6c12,2.6,23.2,7.8,32.9,15.3L668.6,145.5z"/>
<path class="st0" d="M792.4,208.3c0.4,6.5,4.5,12.1,10.5,14.5h7.3v8H740v-8c3.7,0.4,7.4-0.4,10.5-2.4c7-4.5,7.3-12.9,7.3-13.7V54.3
	c-0.9-6.3-5.8-11.2-12.1-12.1H740v-8.1h129c4.7,1.2,9.1,3.4,12.9,6.4c4.7,3.8,7.8,7.7,8.9,10.5c1.2,3.1,1.7,7.6,1.6,12.9
	c0.1,4.1-0.4,8.2-1.6,12.1c-2,5.6-7,13.3-14.5,21c-8.6,8.8-17.6,16-23.4,18.6v2.4c8.4,9.3,16,19.3,22.6,29.8
	c4,6.2,7.5,12.6,10.5,19.3c2.6,5.6,3,6.2,8.1,19.4c6.7,17.2,8.9,20.9,10.5,23.4c3.1,4.8,6.9,9.2,11.3,12.9h4.8v8h-62.9v-8
	c3.8-0.3,7.5-1.7,10.5-4c0.6-2.9,0.8-5.9,0.8-8.9c0-2.7-0.3-5.4-0.8-8.1c-1.9-5-4-10.1-6.5-15.3c-8.1-17.4-18.4-33.6-30.7-48.4
	l-8.1-10.5h-3.2c-4.6,2.8-10.3,6.9-18.5,8.9c-2.9,0.8-5.9,1.3-8.9,1.6L792.4,208.3L792.4,208.3z M794.8,123.6
	c7.6-1.9,19.9-5.7,29.8-10.5c10.3-4.9,17.8-11.3,24.2-16.1c1.4-1.1,9.3-9.6,9.7-21c0.4-11-7.8-21.5-19.4-25.8h-39.5
	c-2.6,1.3-4.8,3.3-6.5,5.6c-2,2.9-3.1,6.2-3.2,9.7v58.1H794.8z"/>
<path class="st1" d="M1178.9,196.7L1113,107c-0.3-0.4-0.4-0.8-0.3-1.2l3.5-21.6c0.1-0.9,1-1.5,1.9-1.4c0.5,0.1,0.9,0.3,1.1,0.7
	l83.7,114c0.5,0.7,0.4,1.8-0.4,2.3c-0.3,0.2-0.8,0.4-1.2,0.3l-21.4-2.7C1179.6,197.3,1179.2,197.1,1178.9,196.7z"/>
<path class="st2" d="M1203.4,198.1l-84.8-115.6c-0.9-1.3-0.7-3,0.6-4l9.3-7.1c1.3-1,3.1-0.8,4.1,0.5c0,0,0,0,0,0.1l84.8,115.5
	c0.9,1.3,0.7,3.1-0.6,4.1l-9.3,7.1C1206.3,199.8,1204.5,199.5,1203.4,198.1C1203.5,198.2,1203.5,198.2,1203.4,198.1z"/>
<path class="st2" d="M1101.6,32.9h-65.2c-1.6,0-2.9,1.3-2.9,2.9c0,0.5,0.1,1,0.4,1.4l6.8,12.1c0.5,0.9,1.5,1.5,2.5,1.5h58.5
	c1.6,0,2.9-1.3,2.9-2.9l0,0v-12C1104.5,34.3,1103.2,32.9,1101.6,32.9L1101.6,32.9z"/>
<path class="st3" d="M957.7,50.9h53.5l11-17.8h-64.5V50.9z"/>
<path class="st4" d="M1012.5,204.2c7.5-9.3,9.4-19.9,7.9-30.4s-6-23.2-13.3-38.4c-5-10.5-8.6-18.5-10.8-23.9
	c-2-5.1-3.5-10.4-4.6-15.8c-0.8,1.1-1.7,2.3-2.5,3.4c-17.7,23-39.3,29.2-46.7,54.4C924.7,214.2,985.9,237.3,1012.5,204.2z"/>
<path class="st5" d="M1028.8,45.7c-2.8,2.6-5.3,5.6-7.4,8.7c-3.5,4.9-6.1,10.5-7.6,16.3c-1.3,5.4-1.4,11.1-0.4,16.6
	c1.1,6,2.8,11.8,5.2,17.4c2.5,6,5.9,13.9,10.4,23.6c7.6,16.1,12.5,30.2,14.6,42.3s-1.1,24.2-9.6,36.3c-5.2,7.5-12.3,13.5-20.5,17.4
	c-3.9,1.9-8.1,3.3-12.4,4.1c2.5,0.2,5.1,0.2,7.6,0c65.7-5.3,62.7-68.1,62.6-69.6C1069.6,136.3,1062.9,106.3,1028.8,45.7z"/>
<path class="st1" d="M1042.3,52.6c3.2,5.9,6.1,11.5,8.8,16.8c0.2,0.4,0.6,0.6,1.1,0.6h33.7c0.3,0,0.6-0.1,0.9-0.4l15.9-16.9
	c0.4-0.5,0.4-1.2-0.1-1.7c-0.2-0.2-0.5-0.3-0.8-0.3h-58.4c-0.7,0-1.2,0.5-1.2,1.2C1042.2,52.2,1042.2,52.4,1042.3,52.6z"/>
<path class="st1" d="M999.1,70c4.1-6.4,8.2-12.8,12.1-19.2h-53.5L975.5,70H999.1z"/>
<path class="st3" d="M982.6,93.7c5.3-6.9,10.4-14.2,15.3-21.7c0.4-0.6,0.2-1.4-0.4-1.7c-0.2-0.1-0.4-0.2-0.7-0.2h-20
	c-0.7,0-1.3,0.5-1.3,1.2l0,0v27.2c0,0.7,0.6,1.3,1.3,1.3c0.3,0,0.7-0.1,0.9-0.4C979.4,97.6,981,95.7,982.6,93.7z"/>
<path class="st2" d="M1112.7,106.5l-36.5,28c1.8,7.8,3,15.8,3.6,23.9c0,0.3,2.1,30.4-17.3,53.8c-6.6,7.9-15,14.2-24.4,18.3l98.3-0.1
	l43.1-32.9L1112.7,106.5z"/>
<path class="st0" d="M1013.8,174.1c-1.2-8.9-4.8-19.8-10.8-32.7c-4.1-9-7-15.8-8.7-20.4c-1.6-4.4-2.9-8.9-3.7-13.5
	c-3.4,5.2-0.6,13.5-0.6,13.5c1.8,4.6,4.7,11.4,8.7,20.4c6,12.9,9.6,23.8,10.9,32.7c1.2,8.9-0.4,18-6.4,25.9
	c-5.5,7.4-14,12.1-23.3,12.8c10.8,0.7,21.2-4.1,27.6-12.8C1013.5,192.1,1015.1,183,1013.8,174.1z"/>
<path class="st0" d="M1065,153.2c-2-18.8-8.3-39.1-29.7-88.1c0.2,3.8,0.9,7.6,2.1,11.3c39.3,88.6,20.5,115.6,13.8,128.3
	C1068.5,187.6,1065.1,154.2,1065,153.2z"/>
<path class="st3" d="M1086.4,126.7V70h-35c10.3,20.6,18.6,42.2,24.8,64.4L1086.4,126.7z"/>
</svg>
